# xmcd
#
# Track frame offsets: 
#        150
#        20992
#        40577
#        61927
#        82957
#        105337
#        134535
#        151302
#        172380
#        193922
#        213225
#        246792
#
# Disc length: 3626 seconds
#
# Revision: 5
# Processed by: cddbd v1.5.2PL0 Copyright (c) Steve Scherf et al.
# Submitted via: ExactAudioCopy v1.0b3
#
DISCID=a40e280c
DTITLE=Various Artist - Blues Next
DYEAR=1998
DGENRE=Blues
TTITLE0=My Way Down - Chris Duarte
TTITLE1=To The Devil For A Dime - Tinsley Ellis
TTITLE2=Blue Drops of Rain - Corey Stevens
TTITLE3=Can't See for Lookin' - Smokin' Joe Kubek Band
TTITLE4=Axe To Grind - Monster Mike Welch
TTITLE5=Young Boy's Blues - Bernard Allison
TTITLE6=This Soul is Mine - Tommy Castro
TTITLE7=Sweet Goddess of Love - Popa Chubby
TTITLE8=Same Dog - Coco Montoya
TTITLE9=I Won't Worry - The Danny Morris Band
TTITLE10=Beyond Cool - Lucky Peterson
TTITLE11=Runnin' Blues - Walter Trout Band
EXTD=YEAR: 1998
EXTT0=
EXTT1=
EXTT2=
EXTT3=
EXTT4=
EXTT5=
EXTT6=
EXTT7=
EXTT8=
EXTT9=
EXTT10=
EXTT11=
PLAYORDER=
